HIERARCHY
ROOT Hips
{
	OFFSET 0.000000 0.000000 0.000000
	CHANNELS 6 Xposition Yposition Zposition Zrotation Yrotation Xrotation 
	JOINT LHipJoint
	{
		OFFSET 0.000000 0.000000 0.000000
		CHANNELS 3 Zrotation Yrotation Xrotation
		JOINT LeftUpLeg
		{
			OFFSET 1.363060 -1.794630 0.839290
			CHANNELS 3 Zrotation Yrotation Xrotation
			JOINT LeftLeg
			{
				OFFSET 2.448110 -6.726130 0.000000
				CHANNELS 3 Zrotation Yrotation Xrotation
				JOINT LeftFoot
				{
					OFFSET 2.562200 -7.039590 0.000000
					CHANNELS 3 Zrotation Yrotation Xrotation
					JOINT LeftToeBase
					{
						OFFSET 0.157640 -0.433110 2.322550
						CHANNELS 3 Zrotation Yrotation Xrotation
						End Site
						{
							OFFSET 0.000000 0.000000 0.000000
						}
					}
				}
			}
		}
	}
	JOINT RHipJoint
	{
		OFFSET 0.000000 0.000000 0.000000
		CHANNELS 3 Zrotation Yrotation Xrotation
		JOINT RightUpLeg
		{
			OFFSET -1.305520 -1.794630 0.839290
			CHANNELS 3 Zrotation Yrotation Xrotation
			JOINT RightLeg
			{
				OFFSET -2.542530 -6.985550 0.000000
				CHANNELS 3 Zrotation Yrotation Xrotation
				JOINT RightFoot
				{
					OFFSET -2.568260 -7.056230 0.000000
					CHANNELS 3 Zrotation Yrotation Xrotation
					JOINT RightToeBase
					{
						OFFSET -0.164730 -0.452590 2.363150
						CHANNELS 3 Zrotation Yrotation Xrotation
						End Site
						{
							OFFSET 0.000000 0.000000 0.000000
						}
					}
				}
			}
		}
	}
	JOINT LowerBack
	{
		OFFSET 0.000000 0.000000 0.000000
		CHANNELS 3 Zrotation Yrotation Xrotation
		JOINT Spine
		{
			OFFSET 0.028270 2.035590 -0.193380
			CHANNELS 3 Zrotation Yrotation Xrotation
			JOINT Spine1
			{
				OFFSET 0.056720 2.048850 -0.042750
				CHANNELS 3 Zrotation Yrotation Xrotation
				JOINT Neck
				{
					OFFSET 0.000000 0.000000 0.000000
					CHANNELS 3 Zrotation Yrotation Xrotation
					JOINT Neck1
					{
						OFFSET -0.054170 1.746240 0.172020
						CHANNELS 3 Zrotation Yrotation Xrotation
						JOINT Head
						{
							OFFSET 0.104070 1.761360 -0.123970
							CHANNELS 3 Zrotation Yrotation Xrotation
							End Site
							{
								OFFSET 0.000000 0.000000 0.000000
							}
						}
					}
				}
				JOINT LeftShoulder
				{
					OFFSET 0.000000 0.000000 0.000000
					CHANNELS 3 Zrotation Yrotation Xrotation
					JOINT LeftArm
					{
						OFFSET 3.362410 1.200890 -0.311210
						CHANNELS 3 Zrotation Yrotation Xrotation
						JOINT LeftForeArm
						{
							OFFSET 4.983000 -0.000000 -0.000000
							CHANNELS 3 Zrotation Yrotation Xrotation
							JOINT LeftHand
							{
								OFFSET 3.483560 -0.000000 -0.000000
								CHANNELS 3 Zrotation Yrotation Xrotation
								JOINT LeftFingerBase
								{
									OFFSET 0.000000 0.000000 0.000000
									CHANNELS 3 Zrotation Yrotation Xrotation
									JOINT LeftHandIndex1
									{
										OFFSET 0.715260 -0.000000 -0.000000
										CHANNELS 3 Zrotation Yrotation Xrotation
										End Site
										{
											OFFSET 0.000000 0.000000 0.000000
										}
									}
								}
								JOINT LThumb
								{
									OFFSET 0.000000 0.000000 0.000000
									CHANNELS 3 Zrotation Yrotation Xrotation
									End Site
									{
										OFFSET 0.000000 0.000000 0.000000
									}
								}
							}
						}
					}
				}
				JOINT RightShoulder
				{
					OFFSET 0.000000 0.000000 0.000000
					CHANNELS 3 Zrotation Yrotation Xrotation
					JOINT RightArm
					{
						OFFSET -3.136600 1.374050 -0.404650
						CHANNELS 3 Zrotation Yrotation Xrotation
						JOINT RightForeArm
						{
							OFFSET -5.241900 -0.000000 -0.000000
							CHANNELS 3 Zrotation Yrotation Xrotation
							JOINT RightHand
							{
								OFFSET -3.444170 -0.000000 -0.000000
								CHANNELS 3 Zrotation Yrotation Xrotation
								JOINT RightFingerBase
								{
									OFFSET 0.000000 0.000000 0.000000
									CHANNELS 3 Zrotation Yrotation Xrotation
									JOINT RightHandIndex1
									{
										OFFSET -0.622530 -0.000000 -0.000000
										CHANNELS 3 Zrotation Yrotation Xrotation
										End Site
										{
											OFFSET 0.000000 0.000000 0.000000
										}
									}
								}
								JOINT RThumb
								{
									OFFSET 0.000000 0.000000 0.000000
									CHANNELS 3 Zrotation Yrotation Xrotation
									End Site
									{
										OFFSET 0.000000 0.000000 0.000000
									}
								}
							}
						}
					}
				}
			}
		}
	}
}
MOTION
Frames: 6
Frame Time: 0.008333
-1.974970 16.673630 0.118503 7.017485 63.578392 6.468156 -10.312051 0.844734 2.558345 -1.158545 -0.361552 -24.097413 -1.493329 0.785374 22.736135 0.345272 1.277960 0.658301 0.239800 0.000001 -41.196100 10.521255 -2.816868 -2.536361 3.632978 -11.972936 2.146166 0.962458 -2.998518 39.679469 -0.603305 -0.907552 -10.423647 0.095200 -0.000000 -50.296100 -5.408395 0.237599 -2.354706 -1.476487 0.541840 -2.617908 -4.532955 0.458715 2.967956 10.309679 -15.308403 -9.013372 -1.193945 -0.075301 -0.350604 0.000000 0.000000 0.000000 -7.405980 26.811407 0.951186 -87.906715 27.089182 5.658340 -3.719721 -25.417963 -0.027425 -14.614965 9.289190 -1.216209 0.048851 -0.136379 -0.000000 0.000000 0.000000 0.000000 0.000000 0.000000 0.000000 10.474809 -10.406269 -0.704155 42.873031 9.811747 8.763027 1.318222 53.660198 0.006249 0.204616 5.331134 0.008054 0.049328 -0.158161 -0.000000 0.000000 0.000000 0.000000 0.000000 0.000000 0.000000 
-1.822824 16.656835 0.157375 7.319120 62.569965 6.588870 -10.321465 0.948317 2.331202 -1.559856 0.772621 -23.904644 -1.489235 0.854848 23.769619 0.370956 1.475281 0.703329 0.256900 0.000000 -41.124900 10.764863 -2.826337 -2.578188 2.655498 -12.556401 0.856738 0.667217 -3.206749 42.563748 -0.638514 -1.424534 -9.129035 0.055800 -0.000001 -51.720900 -5.691078 0.123490 -2.199079 -1.531330 0.452217 -2.607866 -4.557101 0.370129 2.906917 10.369985 -15.315343 -8.985335 -1.216305 -0.077366 -0.343277 0.000000 0.000000 0.000000 -7.287879 26.472636 0.953712 -87.763565 26.966194 7.108362 -3.666485 -25.888015 -0.026898 -14.750480 9.214674 -1.218122 0.053096 -0.135387 -0.000000 0.000000 0.000000 0.000000 0.000000 0.000000 0.000000 10.576267 -10.448066 -0.740099 43.372436 9.793673 8.926108 1.307346 54.116155 0.006248 0.214081 5.330790 0.008459 0.048893 -0.159304 -0.000000 0.000000 0.000000 0.000000 0.000000 0.000000 0.000000 
-1.674043 16.639840 0.197608 7.597210 61.556846 6.699338 -10.323864 1.045938 2.101613 -1.953051 1.954323 -23.734228 -1.500532 0.915342 24.796092 0.395274 1.658655 0.482573 0.264600 0.000000 -41.058100 10.999764 -2.810038 -2.615479 1.748929 -13.121098 -0.530029 0.370151 -3.394791 45.471502 -0.731970 -2.249647 -8.014710 0.014700 -0.000000 -51.202300 -5.959880 -0.000393 -2.044825 -1.583232 0.351357 -2.599021 -4.583246 0.270326 2.841216 10.422310 -15.331286 -8.957603 -1.244216 -0.079898 -0.335701 0.000000 0.000000 0.000000 -7.147870 26.078078 0.951267 -87.513521 26.789210 8.497697 -3.611889 -26.328478 -0.026244 -14.745275 9.115023 -1.204628 0.055777 -0.134081 -0.000000 0.000000 0.000000 0.000000 0.000000 0.000000 0.000000 10.684884 -10.501911 -0.774735 43.958407 9.738859 9.097232 1.301621 54.562951 0.006321 0.241322 5.345344 0.009866 0.048539 -0.160448 0.000000 0.000000 0.000000 0.000000 0.000000 0.000000 0.000000 
-1.528373 16.622956 0.238862 7.830580 60.528849 6.782808 -10.320758 1.138345 1.876261 -2.318505 3.145674 -23.568164 -1.525026 0.967256 25.799972 0.418094 1.827405 0.014209 0.261199 0.000000 -41.032200 11.220151 -2.768632 -2.648066 0.932391 -13.656577 -1.998360 0.088815 -3.563050 48.357408 -0.871525 -3.313697 -7.208873 -0.032499 0.000000 -48.219300 -6.200179 -0.130266 -1.896748 -1.629674 0.241898 -2.591652 -4.612179 0.161962 2.773143 10.467839 -15.355432 -8.930846 -1.277889 -0.082910 -0.328057 0.000000 0.000000 0.000000 -6.996038 25.641990 0.943202 -87.156506 26.555972 9.806023 -3.556691 -26.725881 -0.025491 -14.601476 9.002937 -1.178226 0.056866 -0.132562 -0.000000 0.000000 0.000000 0.000000 0.000000 0.000000 0.000000 10.804557 -10.565504 -0.807289 44.615783 9.651641 9.274794 1.301165 54.988331 0.006472 0.287310 5.378109 0.012174 0.048235 -0.161582 0.000000 0.000000 0.000000 0.000000 0.000000 0.000000 0.000000 
-1.385486 16.606468 0.280828 8.004192 59.476555 6.826815 -10.313999 1.226769 1.660731 -2.642378 4.314897 -23.387298 -1.559582 1.011077 26.763122 0.440559 1.988656 -0.663236 0.246800 0.000000 -41.079300 11.421143 -2.704750 -2.676202 0.218850 -14.159881 -3.533436 -0.162128 -3.713392 51.165257 -1.040903 -4.524086 -6.814161 -0.075000 -0.000000 -42.878500 -6.399886 -0.263044 -1.758483 -1.668594 0.126056 -2.585720 -4.644634 0.047289 2.705616 10.509012 -15.387038 -8.906041 -1.317467 -0.086398 -0.320644 0.000000 0.000000 0.000000 -6.841128 25.182367 0.929198 -86.692311 26.262696 11.022398 -3.501961 -27.065291 -0.024669 -14.328558 8.887335 -1.141117 0.056380 -0.130916 -0.000000 0.000000 0.000000 0.000000 0.000000 0.000000 0.000000 10.940681 -10.636856 -0.837458 45.329453 9.538135 9.456928 1.306054 55.377046 0.006696 0.349951 5.431116 0.015385 0.047991 -0.162672 0.000000 0.000000 0.000000 0.000000 0.000000 0.000000 0.000000 
-1.245022 16.590736 0.323321 8.108507 58.392766 6.823361 -10.305744 1.312533 1.459318 -2.915371 5.438498 -23.174650 -1.600455 1.047300 27.666935 0.464735 2.156064 -1.497624 0.222500 0.000000 -41.220000 11.598613 -2.622471 -2.699753 -0.381438 -14.630652 -5.121415 -0.371795 -3.848151 53.834082 -1.222067 -5.773050 -6.900090 -0.087700 -0.000000 -35.505600 -6.549261 -0.396197 -1.633120 -1.698321 0.005707 -2.581336 -4.681159 -0.071794 2.640655 10.548159 -15.423900 -8.883403 -1.362961 -0.090363 -0.313552 0.000000 0.000000 0.000000 -6.693010 24.713279 0.909214 -86.120555 25.910955 12.134320 -3.449212 -27.336962 -0.023818 -13.943053 8.774942 -1.096001 0.054382 -0.129224 -0.000000 0.000000 0.000000 0.000000 0.000000 0.000000 0.000000 11.096910 -10.712803 -0.865099 46.087647 9.401360 9.638087 1.316513 55.712782 0.006990 0.425787 5.504421 0.019298 0.047847 -0.163664 0.000000 0.000000 0.000000 0.000000 0.000000 0.000000 0.000000 
